<svg width="1728" height="183" viewBox="0 0 1728 183" fill="none" xmlns="http://www.w3.org/2000/svg">
<path d="M0 138.469L32.064 137.956C63.936 137.272 128.064 136.246 192 146.161C255.936 156.076 320.064 177.274 384 181.548C447.936 185.821 512.064 173.171 576 158.982C639.936 144.794 704.064 128.724 768 127.87C831.936 127.015 896.064 141.375 960 149.238C1023.94 157.273 1088.06 158.982 1152 155.051C1215.94 150.948 1280.06 141.375 1344 134.195C1407.94 127.015 1472.06 122.57 1536 128.724C1599.94 135.05 1664.06 152.144 1695.94 160.692L1728 169.239V1.52588e-05H1695.94C1664.06 1.52588e-05 1599.94 1.52588e-05 1536 1.52588e-05C1472.06 1.52588e-05 1407.94 1.52588e-05 1344 1.52588e-05C1280.06 1.52588e-05 1215.94 1.52588e-05 1152 1.52588e-05C1088.06 1.52588e-05 1023.94 1.52588e-05 960 1.52588e-05C896.064 1.52588e-05 831.936 1.52588e-05 768 1.52588e-05C704.064 1.52588e-05 639.936 1.52588e-05 576 1.52588e-05C512.064 1.52588e-05 447.936 1.52588e-05 384 1.52588e-05C320.064 1.52588e-05 255.936 1.52588e-05 192 1.52588e-05C128.064 1.52588e-05 63.936 1.52588e-05 32.064 1.52588e-05H0V138.469Z" fill="#116530"/>
</svg>
